<svg width="23" height="23" viewBox="0 0 23 23" fill="none" xmlns="http://www.w3.org/2000/svg">
<path fill-rule="evenodd" clip-rule="evenodd" d="M0 11C0 4.92487 4.92487 0 11 0C17.0751 0 22 4.92487 22 11C22 11.583 21.9546 12.1555 21.8673 12.714C21.7945 13.1789 21.7581 13.4114 21.6659 13.5191C21.5671 13.6346 21.4996 13.671 21.3488 13.69C21.2081 13.7078 20.8857 13.5612 20.2408 13.2678C19.8627 13.0958 19.4425 13 19 13C17.3431 13 16 14.3431 16 16C14.3431 16 13 17.3431 13 19C13 19.4425 13.0958 19.8627 13.2678 20.2408C13.5612 20.8857 13.7078 21.2081 13.69 21.3488C13.671 21.4996 13.6346 21.5671 13.5191 21.6659C13.4114 21.7581 13.1789 21.7945 12.714 21.8673C12.1555 21.9546 11.583 22 11 22C4.92487 22 0 17.0751 0 11ZM12 5C12 4.44772 11.5523 4 11 4C10.4477 4 10 4.44772 10 5V11C10 11.3788 10.214 11.725 10.5528 11.8944L14.5528 13.8944C15.0468 14.1414 15.6474 13.9412 15.8944 13.4472C16.1414 12.9532 15.9412 12.3526 15.4472 12.1056L12 10.382V5Z" fill="#898989"/>
<path d="M20 16C20 15.4477 19.5523 15 19 15C18.4477 15 18 15.4477 18 16V18H16C15.4477 18 15 18.4477 15 19C15 19.5523 15.4477 20 16 20H18V22C18 22.5523 18.4477 23 19 23C19.5523 23 20 22.5523 20 22V20H22C22.5523 20 23 19.5523 23 19C23 18.4477 22.5523 18 22 18H20V16Z" fill="#898989"/>
</svg>
